<svg id="圖層_1" data-name="圖層 1" xmlns="http://www.w3.org/2000/svg" viewBox="0 0 250 250"><defs><style>.cls-1{fill:#f7b52c;}.cls-2{fill:#fcfdfd;}.cls-3{fill:#ffa300;}</style></defs><circle class="cls-1" cx="125" cy="125" r="125"/><path class="cls-2" d="M65.92,190.69c.89-.6,1.9-.32,2.85-.32q56.91,0,113.81,0c2.77,0,2.8-.26,2.44-3-.59-4.44-1-8.9-1.89-13.3a44.47,44.47,0,0,0-2-6.85A64.26,64.26,0,0,0,173.36,152,62.59,62.59,0,0,0,162,139.82a36.9,36.9,0,0,0-3.74-3c-1.39-.86-2.09-.47-3.16.41-10.17,8.3-21.77,12-34.9,10.57a44.43,44.43,0,0,1-25-10.68c-1.35-1.15-2.16-1.11-3.42-.17A63.28,63.28,0,0,0,71,162.77a64.07,64.07,0,0,0-5.58,25.7A3.44,3.44,0,0,0,65.92,190.69Z"/><path class="cls-2" d="M104.58,129.89a37.4,37.4,0,0,0,12,5.5,40,40,0,0,0,12.59.84c9.07-.82,16.31-5.09,22.31-11.63,10.72-11.69,11.65-29.65,3.06-42.51-.34-.52-.9-1-.73-1.73-2-1.34-3.33-3.42-5.1-5C134.1,62,110.58,63.71,98.14,79a34.84,34.84,0,0,0-8.09,24.19c0,.46,0,.91,0,1.36A52,52,0,0,0,92,113.4,37.49,37.49,0,0,0,104.58,129.89Z"/><path class="cls-1" d="M92,113.4A52,52,0,0,1,90,104.5a5.33,5.33,0,0,0-.06,3.77,8.21,8.21,0,0,1,.58,3C90.47,112.33,91.19,112.89,92,113.4Z"/><path class="cls-3" d="M242.48,167.81c-4.92-4.57-11.11-10.33-13.13-12.18-2.68-2.46-4.79-5.45-7.73-7.65-1.47-1.1-2.57-2.7-4-4-3.25-3-6.29-6.15-9.4-9.26q-9.58-9.56-19.14-19.12c-6.89-6.89-13.83-13.72-20.64-20.69-4.34-4.44-9-8.6-13-13.29-.45-.52-.87-1.16-1.66-1.29-.17.75.39,1.21.73,1.73,8.59,12.86,7.66,30.82-3.06,42.51-6,6.54-13.24,10.81-22.31,11.63a40,40,0,0,1-12.59-.84,37.4,37.4,0,0,1-12-5.5c-.55.47-.15.77.18,1.09,5.17,5.07,10.33,10.16,15.51,15.21.64.63.92,1.09-.07,1.58,13.13,1.39,24.73-2.27,34.9-10.57,1.07-.88,1.77-1.27,3.16-.41a36.9,36.9,0,0,1,3.74,3A62.59,62.59,0,0,1,173.36,152a64.26,64.26,0,0,1,7.78,15.21,44.47,44.47,0,0,1,2,6.85c.88,4.4,1.3,8.86,1.89,13.3.36,2.75.33,3-2.44,3q-56.9,0-113.81,0c-1,0-2-.28-2.85.32.58,1.4,2,2,3,3q14.7,14.73,29.46,29.42L125.27,250A125.07,125.07,0,0,0,242.48,167.81Z"/><circle class="cls-2" cx="125.11" cy="101.33" r="35.27"/><path class="cls-3" d="M125.16,161.65c3.18-4.94,8-5.23,11.31-3.73,4.14,1.88,6,6.54,4.44,11.3a20.71,20.71,0,0,1-6.73,9.49c-2.47,2.08-5.18,3.89-7.85,5.74a2.14,2.14,0,0,1-1.83.2c-5-2.8-9.53-6.12-12.88-10.84-2-2.83-3.38-5.92-2.64-9.54a8.39,8.39,0,0,1,6.67-6.88c3.65-.58,6.74.46,8.88,3.67.11.17.24.34.36.5S125,161.59,125.16,161.65Z"/></svg>